<svg width="287" height="57" viewBox="0 0 287 57" fill="none" xmlns="http://www.w3.org/2000/svg">
<path d="M29.0078 19V17.5234L30.2734 17.3477L36.2383 1.9375H38.2188L44.0781 17.3477L45.332 17.5234V19H40.4336V17.5234L41.7227 17.3008L40.5977 14.1602H33.7656L32.6055 17.3008L33.8945 17.5234V19H29.0078ZM34.4805 12.2266H39.8945L37.3867 5.28906L37.2461 4.90234H37.1758L37.0352 5.28906L34.4805 12.2266ZM50.2422 19.1992C49.3047 19.1992 48.5586 18.9258 48.0039 18.3789C47.457 17.8242 47.1836 16.9414 47.1836 15.7305V8.03125H45.1797V6.32031H47.1836V3.26172H49.4922V6.32031H52.2461V8.03125H49.4922V15.7305C49.4922 16.3398 49.6133 16.7891 49.8555 17.0781C50.0977 17.3672 50.4219 17.5117 50.8281 17.5117C51.1016 17.5117 51.4062 17.4883 51.7422 17.4414C52.0781 17.3867 52.3398 17.3398 52.5273 17.3008L52.8438 18.8125C52.5078 18.9141 52.0938 19.0039 51.6016 19.082C51.1172 19.1602 50.6641 19.1992 50.2422 19.1992ZM59.8633 19.2461C58.6914 19.2461 57.6719 18.9805 56.8047 18.4492C55.9375 17.9102 55.2656 17.1641 54.7891 16.2109C54.3203 15.2578 54.0859 14.1562 54.0859 12.9062V12.3906C54.0859 11.1875 54.332 10.1133 54.8242 9.16797C55.3242 8.21484 55.9844 7.46484 56.8047 6.91797C57.6328 6.36328 58.5352 6.08594 59.5117 6.08594C61.2148 6.08594 62.5039 6.60156 63.3789 7.63281C64.2617 8.66406 64.7031 10.0391 64.7031 11.7578V13.1992H56.4766L56.4414 13.2578C56.4648 14.4766 56.7734 15.4805 57.3672 16.2695C57.9609 17.0508 58.793 17.4414 59.8633 17.4414C60.6445 17.4414 61.3281 17.332 61.9141 17.1133C62.5078 16.8867 63.0195 16.5781 63.4492 16.1875L64.3516 17.6875C63.8984 18.125 63.2969 18.4961 62.5469 18.8008C61.8047 19.0977 60.9102 19.2461 59.8633 19.2461ZM56.5469 11.3945H62.3945V11.0898C62.3945 10.1836 62.1523 9.42578 61.668 8.81641C61.1836 8.20703 60.4648 7.90234 59.5117 7.90234C58.7383 7.90234 58.0781 8.23047 57.5312 8.88672C56.9844 9.53516 56.6484 10.3516 56.5234 11.3359L56.5469 11.3945ZM66.3906 19V17.5234L68.3008 17.1953V2.53516L66.3906 2.20703V0.71875H70.6094V17.1953L72.5195 17.5234V19H66.3906ZM74.0898 19V17.5234L76 17.1953V8.13672L74.0898 7.80859V6.32031H78.3086V17.1953L80.2188 17.5234V19H74.0898ZM75.8828 3.19141V0.71875H78.3086V3.19141H75.8828ZM87.5898 19.2461C86.418 19.2461 85.3984 18.9805 84.5312 18.4492C83.6641 17.9102 82.9922 17.1641 82.5156 16.2109C82.0469 15.2578 81.8125 14.1562 81.8125 12.9062V12.3906C81.8125 11.1875 82.0586 10.1133 82.5508 9.16797C83.0508 8.21484 83.7109 7.46484 84.5312 6.91797C85.3594 6.36328 86.2617 6.08594 87.2383 6.08594C88.9414 6.08594 90.2305 6.60156 91.1055 7.63281C91.9883 8.66406 92.4297 10.0391 92.4297 11.7578V13.1992H84.2031L84.168 13.2578C84.1914 14.4766 84.5 15.4805 85.0938 16.2695C85.6875 17.0508 86.5195 17.4414 87.5898 17.4414C88.3711 17.4414 89.0547 17.332 89.6406 17.1133C90.2344 16.8867 90.7461 16.5781 91.1758 16.1875L92.0781 17.6875C91.625 18.125 91.0234 18.4961 90.2734 18.8008C89.5312 19.0977 88.6367 19.2461 87.5898 19.2461ZM84.2734 11.3945H90.1211V11.0898C90.1211 10.1836 89.8789 9.42578 89.3945 8.81641C88.9102 8.20703 88.1914 7.90234 87.2383 7.90234C86.4648 7.90234 85.8047 8.23047 85.2578 8.88672C84.7109 9.53516 84.375 10.3516 84.25 11.3359L84.2734 11.3945ZM83.6289 3.80078V3.49609L86.5117 0.71875H87.9062L90.8125 3.50781V3.80078H88.9258L87.2031 2.06641L85.5039 3.80078H83.6289ZM104.5 19V17.5234L106.41 17.1953V3.68359H102.543L102.203 6.05078H100.469V1.9375H114.648V6.05078H112.938L112.586 3.68359H108.719V17.1953L110.629 17.5234V19H104.5ZM116.395 19V17.5234L118.305 17.1953V2.53516L116.395 2.20703V0.71875H120.613V8.00781C121.051 7.39844 121.586 6.92578 122.219 6.58984C122.852 6.25391 123.555 6.08594 124.328 6.08594C125.688 6.08594 126.742 6.49219 127.492 7.30469C128.242 8.11719 128.617 9.36719 128.617 11.0547V17.1953L130.527 17.5234V19H124.398V17.5234L126.309 17.1953V11.0312C126.309 8.98438 125.414 7.96094 123.625 7.96094C122.992 7.96094 122.414 8.11328 121.891 8.41797C121.375 8.71484 120.949 9.12109 120.613 9.63672V17.1953L122.523 17.5234V19H116.395ZM136.211 19.2461C134.891 19.2461 133.887 18.9258 133.199 18.2852C132.512 17.6367 132.168 16.7266 132.168 15.5547C132.168 14.3516 132.66 13.3867 133.645 12.6602C134.629 11.9258 135.996 11.5586 137.746 11.5586H140.008V10.3164C140.008 9.55078 139.773 8.95703 139.305 8.53516C138.844 8.11328 138.191 7.90234 137.348 7.90234C136.816 7.90234 136.355 7.96875 135.965 8.10156C135.574 8.22656 135.219 8.40234 134.898 8.62891L134.652 10.3984H132.871V7.49219C134.02 6.55469 135.523 6.08594 137.383 6.08594C138.922 6.08594 140.129 6.45312 141.004 7.1875C141.879 7.92188 142.316 8.97266 142.316 10.3398V16.4453C142.316 16.6094 142.316 16.7695 142.316 16.9258C142.324 17.082 142.336 17.2383 142.352 17.3945L143.582 17.5234V19H140.266C140.133 18.3594 140.051 17.7773 140.02 17.2539C139.574 17.8242 139.016 18.3008 138.344 18.6836C137.68 19.0586 136.969 19.2461 136.211 19.2461ZM136.551 17.3125C137.316 17.3125 138.016 17.1289 138.648 16.7617C139.281 16.3945 139.734 15.9531 140.008 15.4375V13.1406H137.664C136.602 13.1406 135.805 13.3945 135.273 13.9023C134.742 14.4102 134.477 14.9766 134.477 15.6016C134.477 16.7422 135.168 17.3125 136.551 17.3125ZM145.293 19V17.5234L147.203 17.1953V8.13672L145.293 7.80859V6.32031H149.512V17.1953L151.422 17.5234V19H145.293ZM147.086 3.19141V0.71875H149.512V3.19141H147.086ZM158.148 19.2461C157.297 19.2461 156.5 19.1602 155.758 18.9883C155.016 18.8164 154.227 18.5508 153.391 18.1914L153.367 15.1797H155.113L155.547 16.9961C156.375 17.3398 157.242 17.5117 158.148 17.5117C159.086 17.5117 159.758 17.332 160.164 16.9727C160.57 16.6133 160.773 16.168 160.773 15.6367C160.773 15.1367 160.566 14.7148 160.152 14.3711C159.746 14.0195 159.004 13.7227 157.926 13.4805C156.395 13.1289 155.266 12.6602 154.539 12.0742C153.82 11.4805 153.461 10.6914 153.461 9.70703C153.461 9.01953 153.66 8.40625 154.059 7.86719C154.457 7.32031 155.012 6.88672 155.723 6.56641C156.434 6.24609 157.262 6.08594 158.207 6.08594C159.168 6.08594 159.988 6.19531 160.668 6.41406C161.355 6.63281 161.953 6.92578 162.461 7.29297L162.578 10.1875H160.844L160.469 8.5C160.195 8.29688 159.871 8.14062 159.496 8.03125C159.121 7.92188 158.691 7.86719 158.207 7.86719C157.488 7.86719 156.902 8.03516 156.449 8.37109C156.004 8.70703 155.781 9.12891 155.781 9.63672C155.781 9.93359 155.844 10.1914 155.969 10.4102C156.102 10.6289 156.352 10.8281 156.719 11.0078C157.086 11.1797 157.625 11.3516 158.336 11.5234C160.102 11.9375 161.332 12.4648 162.027 13.1055C162.73 13.7461 163.082 14.5352 163.082 15.4727C163.082 16.543 162.684 17.4414 161.887 18.168C161.098 18.8867 159.852 19.2461 158.148 19.2461ZM178.75 19.2461C177.172 19.2461 175.805 18.8828 174.648 18.1562C173.492 17.4219 172.602 16.4062 171.977 15.1094C171.352 13.8125 171.039 12.3125 171.039 10.6094V10.3281C171.039 8.60938 171.352 7.10547 171.977 5.81641C172.609 4.51953 173.473 3.50781 174.566 2.78125C175.66 2.05469 176.902 1.69141 178.293 1.69141C179.621 1.69141 180.746 1.84375 181.668 2.14844C182.598 2.45312 183.391 2.86328 184.047 3.37891V6.82422H182.148L181.902 4.35156C181.137 3.84375 180.012 3.58984 178.527 3.58984C177.551 3.58984 176.672 3.87109 175.891 4.43359C175.109 4.99609 174.492 5.78125 174.039 6.78906C173.586 7.78906 173.359 8.96094 173.359 10.3047V10.6094C173.359 11.9688 173.566 13.1562 173.98 14.1719C174.402 15.1797 175.016 15.9648 175.82 16.5273C176.625 17.082 177.602 17.3594 178.75 17.3594C179.531 17.3594 180.191 17.293 180.73 17.1602C181.27 17.0195 181.746 16.8398 182.16 16.6211V12.6133L178.891 12.4961V10.7969H184.469V17.4062C183.977 17.8672 183.27 18.2891 182.348 18.6719C181.434 19.0547 180.234 19.2461 178.75 19.2461ZM192.824 19.2461C191.652 19.2461 190.641 18.9727 189.789 18.4258C188.945 17.8711 188.293 17.1094 187.832 16.1406C187.371 15.1641 187.141 14.0508 187.141 12.8008V12.543C187.141 11.293 187.371 10.1836 187.832 9.21484C188.293 8.23828 188.945 7.47266 189.789 6.91797C190.641 6.36328 191.645 6.08594 192.801 6.08594C193.973 6.08594 194.98 6.36328 195.824 6.91797C196.676 7.47266 197.332 8.23438 197.793 9.20312C198.254 10.1719 198.484 11.2852 198.484 12.543V12.8008C198.484 14.0586 198.254 15.1758 197.793 16.1523C197.332 17.1211 196.68 17.8789 195.836 18.4258C194.992 18.9727 193.988 19.2461 192.824 19.2461ZM192.824 17.4414C193.918 17.4414 194.75 17.0039 195.32 16.1289C195.891 15.2539 196.176 14.1445 196.176 12.8008V12.543C196.176 11.6523 196.047 10.8594 195.789 10.1641C195.539 9.46094 195.164 8.91016 194.664 8.51172C194.164 8.10547 193.543 7.90234 192.801 7.90234C192.066 7.90234 191.449 8.10547 190.949 8.51172C190.449 8.91016 190.074 9.46094 189.824 10.1641C189.574 10.8594 189.449 11.6523 189.449 12.543V12.8008C189.449 14.1445 189.73 15.2539 190.293 16.1289C190.863 17.0039 191.707 17.4414 192.824 17.4414ZM200.266 19V17.5234L202.176 17.1953V8.13672L200.266 7.80859V6.32031H204.25L204.402 7.97266C204.809 7.37109 205.332 6.90625 205.973 6.57812C206.613 6.25 207.355 6.08594 208.199 6.08594C209.043 6.08594 209.766 6.28125 210.367 6.67188C210.977 7.0625 211.434 7.64844 211.738 8.42969C212.137 7.71094 212.664 7.14062 213.32 6.71875C213.977 6.29688 214.742 6.08594 215.617 6.08594C216.914 6.08594 217.938 6.53125 218.688 7.42188C219.438 8.30469 219.812 9.63672 219.812 11.418V17.1953L221.723 17.5234V19H215.582V17.5234L217.492 17.1953V11.3945C217.492 10.1445 217.277 9.26172 216.848 8.74609C216.418 8.22266 215.781 7.96094 214.938 7.96094C214.133 7.96094 213.484 8.24609 212.992 8.81641C212.508 9.37891 212.227 10.0898 212.148 10.9492V17.1953L214.059 17.5234V19H207.93V17.5234L209.84 17.1953V11.3945C209.84 10.207 209.617 9.33984 209.172 8.79297C208.734 8.23828 208.098 7.96094 207.262 7.96094C206.559 7.96094 205.98 8.10547 205.527 8.39453C205.074 8.68359 204.727 9.08984 204.484 9.61328V17.1953L206.395 17.5234V19H200.266ZM229.035 19.2461C227.863 19.2461 226.844 18.9805 225.977 18.4492C225.109 17.9102 224.438 17.1641 223.961 16.2109C223.492 15.2578 223.258 14.1562 223.258 12.9062V12.3906C223.258 11.1875 223.504 10.1133 223.996 9.16797C224.496 8.21484 225.156 7.46484 225.977 6.91797C226.805 6.36328 227.707 6.08594 228.684 6.08594C230.387 6.08594 231.676 6.60156 232.551 7.63281C233.434 8.66406 233.875 10.0391 233.875 11.7578V13.1992H225.648L225.613 13.2578C225.637 14.4766 225.945 15.4805 226.539 16.2695C227.133 17.0508 227.965 17.4414 229.035 17.4414C229.816 17.4414 230.5 17.332 231.086 17.1133C231.68 16.8867 232.191 16.5781 232.621 16.1875L233.523 17.6875C233.07 18.125 232.469 18.4961 231.719 18.8008C230.977 19.0977 230.082 19.2461 229.035 19.2461ZM225.719 11.3945H231.566V11.0898C231.566 10.1836 231.324 9.42578 230.84 8.81641C230.355 8.20703 229.637 7.90234 228.684 7.90234C227.91 7.90234 227.25 8.23047 226.703 8.88672C226.156 9.53516 225.82 10.3516 225.695 11.3359L225.719 11.3945ZM240.883 19.2461C240.031 19.2461 239.234 19.1602 238.492 18.9883C237.75 18.8164 236.961 18.5508 236.125 18.1914L236.102 15.1797H237.848L238.281 16.9961C239.109 17.3398 239.977 17.5117 240.883 17.5117C241.82 17.5117 242.492 17.332 242.898 16.9727C243.305 16.6133 243.508 16.168 243.508 15.6367C243.508 15.1367 243.301 14.7148 242.887 14.3711C242.48 14.0195 241.738 13.7227 240.66 13.4805C239.129 13.1289 238 12.6602 237.273 12.0742C236.555 11.4805 236.195 10.6914 236.195 9.70703C236.195 9.01953 236.395 8.40625 236.793 7.86719C237.191 7.32031 237.746 6.88672 238.457 6.56641C239.168 6.24609 239.996 6.08594 240.941 6.08594C241.902 6.08594 242.723 6.19531 243.402 6.41406C244.09 6.63281 244.688 6.92578 245.195 7.29297L245.312 10.1875H243.578L243.203 8.5C242.93 8.29688 242.605 8.14062 242.23 8.03125C241.855 7.92188 241.426 7.86719 240.941 7.86719C240.223 7.86719 239.637 8.03516 239.184 8.37109C238.738 8.70703 238.516 9.12891 238.516 9.63672C238.516 9.93359 238.578 10.1914 238.703 10.4102C238.836 10.6289 239.086 10.8281 239.453 11.0078C239.82 11.1797 240.359 11.3516 241.07 11.5234C242.836 11.9375 244.066 12.4648 244.762 13.1055C245.465 13.7461 245.816 14.5352 245.816 15.4727C245.816 16.543 245.418 17.4414 244.621 18.168C243.832 18.8867 242.586 19.2461 240.883 19.2461ZM0.601562 51V49.5234L2.51172 49.1953V35.7539L0.601562 35.4258V33.9375H7.28125C8.78906 33.9375 10.1016 34.2969 11.2188 35.0156C12.3438 35.7344 13.2188 36.7227 13.8438 37.9805C14.4688 39.2383 14.7812 40.6758 14.7812 42.293V42.6562C14.7812 44.2344 14.4805 45.6562 13.8789 46.9219C13.2773 48.1797 12.4219 49.1758 11.3125 49.9102C10.2109 50.6367 8.90625 51 7.39844 51H0.601562ZM4.82031 49.1953H7.28125C8.35938 49.1953 9.28516 48.9023 10.0586 48.3164C10.832 47.7227 11.4258 46.9336 11.8398 45.9492C12.2617 44.957 12.4727 43.8594 12.4727 42.6562V42.2695C12.4727 41.0273 12.2617 39.918 11.8398 38.9414C11.4258 37.957 10.832 37.1797 10.0586 36.6094C9.28516 36.0391 8.35938 35.7539 7.28125 35.7539H4.82031V49.1953ZM22.1875 51.2461C21.0156 51.2461 19.9961 50.9805 19.1289 50.4492C18.2617 49.9102 17.5898 49.1641 17.1133 48.2109C16.6445 47.2578 16.4102 46.1562 16.4102 44.9062V44.3906C16.4102 43.1875 16.6562 42.1133 17.1484 41.168C17.6484 40.2148 18.3086 39.4648 19.1289 38.918C19.957 38.3633 20.8594 38.0859 21.8359 38.0859C23.5391 38.0859 24.8281 38.6016 25.7031 39.6328C26.5859 40.6641 27.0273 42.0391 27.0273 43.7578V45.1992H18.8008L18.7656 45.2578C18.7891 46.4766 19.0977 47.4805 19.6914 48.2695C20.2852 49.0508 21.1172 49.4414 22.1875 49.4414C22.9688 49.4414 23.6523 49.332 24.2383 49.1133C24.832 48.8867 25.3438 48.5781 25.7734 48.1875L26.6758 49.6875C26.2227 50.125 25.6211 50.4961 24.8711 50.8008C24.1289 51.0977 23.2344 51.2461 22.1875 51.2461ZM18.8711 43.3945H24.7188V43.0898C24.7188 42.1836 24.4766 41.4258 23.9922 40.8164C23.5078 40.207 22.7891 39.9023 21.8359 39.9023C21.0625 39.9023 20.4023 40.2305 19.8555 40.8867C19.3086 41.5352 18.9727 42.3516 18.8477 43.3359L18.8711 43.3945ZM28.4805 55.875V54.3867L30.2734 54.0586V40.1367L28.3633 39.8086V38.3203H32.2539L32.4648 39.8672C33.332 38.6797 34.5469 38.0859 36.1094 38.0859C37.1562 38.0859 38.0508 38.3711 38.793 38.9414C39.5352 39.5039 40.1016 40.2969 40.4922 41.3203C40.8828 42.3359 41.0781 43.5273 41.0781 44.8945V45.1406C41.0781 46.3594 40.8789 47.4258 40.4805 48.3398C40.0898 49.2539 39.5273 49.9688 38.793 50.4844C38.0586 50.9922 37.1758 51.2461 36.1445 51.2461C34.6055 51.2461 33.418 50.7266 32.582 49.6875V54.0586L34.5977 54.3867V55.875H28.4805ZM35.4297 49.4414C36.5234 49.4414 37.3516 49.043 37.9141 48.2461C38.4766 47.4492 38.7578 46.4141 38.7578 45.1406V44.8945C38.7578 43.4492 38.4766 42.2656 37.9141 41.3438C37.3516 40.4219 36.5156 39.9609 35.4062 39.9609C34.75 39.9609 34.1875 40.1094 33.7188 40.4062C33.25 40.7031 32.8711 41.1094 32.582 41.625V47.8008C32.8711 48.3242 33.2461 48.7305 33.707 49.0195C34.1758 49.3008 34.75 49.4414 35.4297 49.4414ZM42.7891 51V49.5234L44.6992 49.1953V40.1367L42.7891 39.8086V38.3203H47.0078V49.1953L48.918 49.5234V51H42.7891ZM44.582 35.1914V32.7188H47.0078V35.1914H44.582ZM50.3945 51V49.5234L52.3047 49.1953V34.5352L50.3945 34.207V32.7188H54.6133V49.1953L56.5234 49.5234V51H50.3945ZM62.2773 51.2461C60.957 51.2461 59.9531 50.9258 59.2656 50.2852C58.5781 49.6367 58.2344 48.7266 58.2344 47.5547C58.2344 46.3516 58.7266 45.3867 59.7109 44.6602C60.6953 43.9258 62.0625 43.5586 63.8125 43.5586H66.0742V42.3164C66.0742 41.5508 65.8398 40.957 65.3711 40.5352C64.9102 40.1133 64.2578 39.9023 63.4141 39.9023C62.8828 39.9023 62.4219 39.9688 62.0312 40.1016C61.6406 40.2266 61.2852 40.4023 60.9648 40.6289L60.7188 42.3984H58.9375V39.4922C60.0859 38.5547 61.5898 38.0859 63.4492 38.0859C64.9883 38.0859 66.1953 38.4531 67.0703 39.1875C67.9453 39.9219 68.3828 40.9727 68.3828 42.3398V48.4453C68.3828 48.6094 68.3828 48.7695 68.3828 48.9258C68.3906 49.082 68.4023 49.2383 68.418 49.3945L69.6484 49.5234V51H66.332C66.1992 50.3594 66.1172 49.7773 66.0859 49.2539C65.6406 49.8242 65.082 50.3008 64.4102 50.6836C63.7461 51.0586 63.0352 51.2461 62.2773 51.2461ZM62.6172 49.3125C63.3828 49.3125 64.082 49.1289 64.7148 48.7617C65.3477 48.3945 65.8008 47.9531 66.0742 47.4375V45.1406H63.7305C62.668 45.1406 61.8711 45.3945 61.3398 45.9023C60.8086 46.4102 60.543 46.9766 60.543 47.6016C60.543 48.7422 61.2344 49.3125 62.6172 49.3125ZM77.1719 51.2461C76.0234 51.2461 75.0234 50.9805 74.1719 50.4492C73.3203 49.9102 72.6602 49.1641 72.1914 48.2109C71.7227 47.2578 71.4883 46.1562 71.4883 44.9062V44.4141C71.4883 43.2109 71.7148 42.1328 72.168 41.1797C72.6211 40.2266 73.2734 39.4727 74.125 38.918C74.9766 38.3633 75.9922 38.0859 77.1719 38.0859C78.1953 38.0859 79.0898 38.2539 79.8555 38.5898C80.6289 38.9258 81.2773 39.3867 81.8008 39.9727L81.8594 43.0195H80.0547L79.6562 40.8047C79.3906 40.5312 79.0586 40.3125 78.6602 40.1484C78.2617 39.9844 77.793 39.9023 77.2539 39.9023C76.5664 39.9023 75.9609 40.1055 75.4375 40.5117C74.9219 40.918 74.5195 41.4609 74.2305 42.1406C73.9414 42.8203 73.7969 43.5781 73.7969 44.4141V44.9062C73.7969 46.2969 74.0977 47.4023 74.6992 48.2227C75.3008 49.0352 76.1211 49.4414 77.1602 49.4414C77.9414 49.4414 78.5898 49.2266 79.1055 48.7969C79.6211 48.3672 79.9375 47.7773 80.0547 47.0273H82.1289L82.1523 47.0977C82.1133 47.8242 81.8984 48.5039 81.5078 49.1367C81.1172 49.7695 80.5586 50.2812 79.832 50.6719C79.1133 51.0547 78.2266 51.2461 77.1719 51.2461ZM75.9883 56.0977L75.9062 54.8203C76.4688 54.8203 76.918 54.7266 77.2539 54.5391C77.5977 54.3516 77.7695 54.0742 77.7695 53.707C77.7695 53.3398 77.6289 53.0859 77.3477 52.9453C77.0664 52.8047 76.582 52.707 75.8945 52.6523L76.3633 50.625H78.0156L77.7812 51.6797C78.2969 51.7656 78.7227 51.9648 79.0586 52.2773C79.3945 52.5898 79.5625 53.0547 79.5625 53.6719C79.5625 54.4062 79.2539 54.9922 78.6367 55.4297C78.0195 55.875 77.1367 56.0977 75.9883 56.0977ZM88.293 51.2461C86.9727 51.2461 85.9688 50.9258 85.2812 50.2852C84.5938 49.6367 84.25 48.7266 84.25 47.5547C84.25 46.3516 84.7422 45.3867 85.7266 44.6602C86.7109 43.9258 88.0781 43.5586 89.8281 43.5586H92.0898V42.3164C92.0898 41.5508 91.8555 40.957 91.3867 40.5352C90.9258 40.1133 90.2734 39.9023 89.4297 39.9023C88.8984 39.9023 88.4375 39.9688 88.0469 40.1016C87.6562 40.2266 87.3008 40.4023 86.9805 40.6289L86.7344 42.3984H84.9531V39.4922C86.1016 38.5547 87.6055 38.0859 89.4648 38.0859C91.0039 38.0859 92.2109 38.4531 93.0859 39.1875C93.9609 39.9219 94.3984 40.9727 94.3984 42.3398V48.4453C94.3984 48.6094 94.3984 48.7695 94.3984 48.9258C94.4062 49.082 94.418 49.2383 94.4336 49.3945L95.6641 49.5234V51H92.3477C92.2148 50.3594 92.1328 49.7773 92.1016 49.2539C91.6562 49.8242 91.0977 50.3008 90.4258 50.6836C89.7617 51.0586 89.0508 51.2461 88.293 51.2461ZM88.6328 49.3125C89.3984 49.3125 90.0977 49.1289 90.7305 48.7617C91.3633 48.3945 91.8164 47.9531 92.0898 47.4375V45.1406H89.7461C88.6836 45.1406 87.8867 45.3945 87.3555 45.9023C86.8242 46.4102 86.5586 46.9766 86.5586 47.6016C86.5586 48.7422 87.25 49.3125 88.6328 49.3125ZM86.7695 35.707L85.5156 35.4492C85.5156 34.9492 85.625 34.4922 85.8438 34.0781C86.0625 33.6641 86.3555 33.332 86.7227 33.082C87.0898 32.8242 87.5 32.6953 87.9531 32.6953C88.3047 32.6953 88.6797 32.793 89.0781 32.9883C89.4766 33.1836 89.8594 33.3789 90.2266 33.5742C90.6016 33.7695 90.9219 33.8672 91.1875 33.8672C91.5078 33.8672 91.7852 33.7422 92.0195 33.4922C92.2539 33.2344 92.3711 32.918 92.3711 32.543L93.6367 32.8711C93.6367 33.6211 93.3984 34.2578 92.9219 34.7812C92.4453 35.2969 91.8672 35.5547 91.1875 35.5547C90.8047 35.5547 90.4141 35.4609 90.0156 35.2734C89.6172 35.0781 89.2383 34.8828 88.8789 34.6875C88.5273 34.4922 88.2188 34.3945 87.9531 34.3945C87.625 34.3945 87.3438 34.5234 87.1094 34.7812C86.8828 35.0312 86.7695 35.3398 86.7695 35.707ZM103.188 51.2461C102.016 51.2461 101.004 50.9727 100.152 50.4258C99.3086 49.8711 98.6562 49.1094 98.1953 48.1406C97.7344 47.1641 97.5039 46.0508 97.5039 44.8008V44.543C97.5039 43.293 97.7344 42.1836 98.1953 41.2148C98.6562 40.2383 99.3086 39.4727 100.152 38.918C101.004 38.3633 102.008 38.0859 103.164 38.0859C104.336 38.0859 105.344 38.3633 106.188 38.918C107.039 39.4727 107.695 40.2344 108.156 41.2031C108.617 42.1719 108.848 43.2852 108.848 44.543V44.8008C108.848 46.0586 108.617 47.1758 108.156 48.1523C107.695 49.1211 107.043 49.8789 106.199 50.4258C105.355 50.9727 104.352 51.2461 103.188 51.2461ZM103.188 49.4414C104.281 49.4414 105.113 49.0039 105.684 48.1289C106.254 47.2539 106.539 46.1445 106.539 44.8008V44.543C106.539 43.6523 106.41 42.8594 106.152 42.1641C105.902 41.4609 105.527 40.9102 105.027 40.5117C104.527 40.1055 103.906 39.9023 103.164 39.9023C102.43 39.9023 101.812 40.1055 101.312 40.5117C100.812 40.9102 100.438 41.4609 100.188 42.1641C99.9375 42.8594 99.8125 43.6523 99.8125 44.543V44.8008C99.8125 46.1445 100.094 47.2539 100.656 48.1289C101.227 49.0039 102.07 49.4414 103.188 49.4414ZM122.383 51.2461C121.211 51.2461 120.191 50.9805 119.324 50.4492C118.457 49.9102 117.785 49.1641 117.309 48.2109C116.84 47.2578 116.605 46.1562 116.605 44.9062V44.3906C116.605 43.1875 116.852 42.1133 117.344 41.168C117.844 40.2148 118.504 39.4648 119.324 38.918C120.152 38.3633 121.055 38.0859 122.031 38.0859C123.734 38.0859 125.023 38.6016 125.898 39.6328C126.781 40.6641 127.223 42.0391 127.223 43.7578V45.1992H118.996L118.961 45.2578C118.984 46.4766 119.293 47.4805 119.887 48.2695C120.48 49.0508 121.312 49.4414 122.383 49.4414C123.164 49.4414 123.848 49.332 124.434 49.1133C125.027 48.8867 125.539 48.5781 125.969 48.1875L126.871 49.6875C126.418 50.125 125.816 50.4961 125.066 50.8008C124.324 51.0977 123.43 51.2461 122.383 51.2461ZM119.066 43.3945H124.914V43.0898C124.914 42.1836 124.672 41.4258 124.188 40.8164C123.703 40.207 122.984 39.9023 122.031 39.9023C121.258 39.9023 120.598 40.2305 120.051 40.8867C119.504 41.5352 119.168 42.3516 119.043 43.3359L119.066 43.3945ZM141.238 51.2461C140.199 51.2461 139.199 51.0938 138.238 50.7891C137.277 50.4844 136.359 50.0156 135.484 49.3828V45.7383H137.277L137.664 48.4219C138.172 48.7344 138.723 48.9766 139.316 49.1484C139.91 49.3203 140.551 49.4062 141.238 49.4062C142.402 49.4062 143.305 49.1484 143.945 48.6328C144.586 48.1094 144.906 47.4258 144.906 46.582C144.906 45.8008 144.617 45.1523 144.039 44.6367C143.461 44.1211 142.43 43.6953 140.945 43.3594C139.18 42.9531 137.832 42.3359 136.902 41.5078C135.973 40.6719 135.508 39.6211 135.508 38.3555C135.508 37.4648 135.742 36.668 136.211 35.9648C136.688 35.2617 137.348 34.707 138.191 34.3008C139.035 33.8945 140.02 33.6914 141.145 33.6914C142.34 33.6914 143.395 33.875 144.309 34.2422C145.23 34.6016 145.988 35.0391 146.582 35.5547V38.9648H144.789L144.402 36.5273C144.051 36.2461 143.613 36.0117 143.09 35.8242C142.566 35.6367 141.918 35.543 141.145 35.543C140.152 35.543 139.348 35.7969 138.73 36.3047C138.121 36.8125 137.816 37.4844 137.816 38.3203C137.816 39.0547 138.109 39.6562 138.695 40.125C139.281 40.5859 140.297 40.9961 141.742 41.3555C143.539 41.8008 144.898 42.4609 145.82 43.3359C146.75 44.2031 147.215 45.2773 147.215 46.5586C147.215 47.4727 146.969 48.2852 146.477 48.9961C145.984 49.6992 145.289 50.25 144.391 50.6484C143.5 51.0469 142.449 51.2461 141.238 51.2461ZM154.867 51.2461C153.695 51.2461 152.684 50.9727 151.832 50.4258C150.988 49.8711 150.336 49.1094 149.875 48.1406C149.414 47.1641 149.184 46.0508 149.184 44.8008V44.543C149.184 43.293 149.414 42.1836 149.875 41.2148C150.336 40.2383 150.988 39.4727 151.832 38.918C152.684 38.3633 153.688 38.0859 154.844 38.0859C156.016 38.0859 157.023 38.3633 157.867 38.918C158.719 39.4727 159.375 40.2344 159.836 41.2031C160.297 42.1719 160.527 43.2852 160.527 44.543V44.8008C160.527 46.0586 160.297 47.1758 159.836 48.1523C159.375 49.1211 158.723 49.8789 157.879 50.4258C157.035 50.9727 156.031 51.2461 154.867 51.2461ZM154.867 49.4414C155.961 49.4414 156.793 49.0039 157.363 48.1289C157.934 47.2539 158.219 46.1445 158.219 44.8008V44.543C158.219 43.6523 158.09 42.8594 157.832 42.1641C157.582 41.4609 157.207 40.9102 156.707 40.5117C156.207 40.1055 155.586 39.9023 154.844 39.9023C154.109 39.9023 153.492 40.1055 152.992 40.5117C152.492 40.9102 152.117 41.4609 151.867 42.1641C151.617 42.8594 151.492 43.6523 151.492 44.543V44.8008C151.492 46.1445 151.773 47.2539 152.336 48.1289C152.906 49.0039 153.75 49.4414 154.867 49.4414ZM169.047 51.2461C167.414 51.2461 166.188 50.6211 165.367 49.3711L165.156 51H163.164V34.5352L161.254 34.207V32.7188H165.473V39.8203C165.871 39.2578 166.363 38.8281 166.949 38.5312C167.543 38.2344 168.234 38.0859 169.023 38.0859C170.07 38.0859 170.961 38.3711 171.695 38.9414C172.438 39.5039 173.004 40.2969 173.395 41.3203C173.793 42.3438 173.992 43.5352 173.992 44.8945V45.1406C173.992 46.3594 173.793 47.4258 173.395 48.3398C173.004 49.2539 172.438 49.9688 171.695 50.4844C170.961 50.9922 170.078 51.2461 169.047 51.2461ZM168.461 49.3711C169.547 49.3711 170.352 48.9844 170.875 48.2109C171.406 47.4375 171.672 46.4141 171.672 45.1406V44.8945C171.672 43.4336 171.406 42.2461 170.875 41.332C170.344 40.418 169.531 39.9609 168.438 39.9609C167.727 39.9609 167.125 40.1328 166.633 40.4766C166.148 40.8203 165.762 41.2812 165.473 41.8594V47.4609C165.762 48.0469 166.152 48.5117 166.645 48.8555C167.145 49.1992 167.75 49.3711 168.461 49.3711ZM175.715 51V49.5234L177.625 49.1953V40.1367L175.715 39.8086V38.3203H179.688L179.887 39.9375L179.91 40.1602C180.27 39.5117 180.711 39.0039 181.234 38.6367C181.766 38.2695 182.371 38.0859 183.051 38.0859C183.293 38.0859 183.539 38.1094 183.789 38.1562C184.047 38.1953 184.23 38.2344 184.34 38.2734L184.035 40.418L182.43 40.3242C181.82 40.2852 181.309 40.4258 180.895 40.7461C180.48 41.0586 180.16 41.4805 179.934 42.0117V49.1953L181.844 49.5234V51H175.715ZM189.848 51.2461C188.527 51.2461 187.523 50.9258 186.836 50.2852C186.148 49.6367 185.805 48.7266 185.805 47.5547C185.805 46.3516 186.297 45.3867 187.281 44.6602C188.266 43.9258 189.633 43.5586 191.383 43.5586H193.645V42.3164C193.645 41.5508 193.41 40.957 192.941 40.5352C192.48 40.1133 191.828 39.9023 190.984 39.9023C190.453 39.9023 189.992 39.9688 189.602 40.1016C189.211 40.2266 188.855 40.4023 188.535 40.6289L188.289 42.3984H186.508V39.4922C187.656 38.5547 189.16 38.0859 191.02 38.0859C192.559 38.0859 193.766 38.4531 194.641 39.1875C195.516 39.9219 195.953 40.9727 195.953 42.3398V48.4453C195.953 48.6094 195.953 48.7695 195.953 48.9258C195.961 49.082 195.973 49.2383 195.988 49.3945L197.219 49.5234V51H193.902C193.77 50.3594 193.688 49.7773 193.656 49.2539C193.211 49.8242 192.652 50.3008 191.98 50.6836C191.316 51.0586 190.605 51.2461 189.848 51.2461ZM190.188 49.3125C190.953 49.3125 191.652 49.1289 192.285 48.7617C192.918 48.3945 193.371 47.9531 193.645 47.4375V45.1406H191.301C190.238 45.1406 189.441 45.3945 188.91 45.9023C188.379 46.4102 188.113 46.9766 188.113 47.6016C188.113 48.7422 188.805 49.3125 190.188 49.3125ZM199.012 51V49.5234L200.922 49.1953V40.1367L199.012 39.8086V38.3203H202.984L203.148 40.207C203.57 39.5352 204.098 39.0156 204.73 38.6484C205.371 38.2734 206.098 38.0859 206.91 38.0859C208.277 38.0859 209.336 38.4883 210.086 39.293C210.836 40.0898 211.211 41.3242 211.211 42.9961V49.1953L213.121 49.5234V51H206.992V49.5234L208.902 49.1953V43.043C208.902 41.9258 208.68 41.1328 208.234 40.6641C207.797 40.1953 207.125 39.9609 206.219 39.9609C205.555 39.9609 204.965 40.1211 204.449 40.4414C203.941 40.7617 203.535 41.1992 203.23 41.7539V49.1953L205.141 49.5234V51H199.012ZM220.375 51.2461C219.227 51.2461 218.227 50.9805 217.375 50.4492C216.523 49.9102 215.863 49.1641 215.395 48.2109C214.926 47.2578 214.691 46.1562 214.691 44.9062V44.4141C214.691 43.2109 214.918 42.1328 215.371 41.1797C215.824 40.2266 216.477 39.4727 217.328 38.918C218.18 38.3633 219.195 38.0859 220.375 38.0859C221.398 38.0859 222.293 38.2539 223.059 38.5898C223.832 38.9258 224.48 39.3867 225.004 39.9727L225.062 43.0195H223.258L222.859 40.8047C222.594 40.5312 222.262 40.3125 221.863 40.1484C221.465 39.9844 220.996 39.9023 220.457 39.9023C219.77 39.9023 219.164 40.1055 218.641 40.5117C218.125 40.918 217.723 41.4609 217.434 42.1406C217.145 42.8203 217 43.5781 217 44.4141V44.9062C217 46.2969 217.301 47.4023 217.902 48.2227C218.504 49.0352 219.324 49.4414 220.363 49.4414C221.145 49.4414 221.793 49.2266 222.309 48.7969C222.824 48.3672 223.141 47.7773 223.258 47.0273H225.332L225.355 47.0977C225.316 47.8242 225.102 48.5039 224.711 49.1367C224.32 49.7695 223.762 50.2812 223.035 50.6719C222.316 51.0547 221.43 51.2461 220.375 51.2461ZM233.242 51.2461C232.07 51.2461 231.051 50.9805 230.184 50.4492C229.316 49.9102 228.645 49.1641 228.168 48.2109C227.699 47.2578 227.465 46.1562 227.465 44.9062V44.3906C227.465 43.1875 227.711 42.1133 228.203 41.168C228.703 40.2148 229.363 39.4648 230.184 38.918C231.012 38.3633 231.914 38.0859 232.891 38.0859C234.594 38.0859 235.883 38.6016 236.758 39.6328C237.641 40.6641 238.082 42.0391 238.082 43.7578V45.1992H229.855L229.82 45.2578C229.844 46.4766 230.152 47.4805 230.746 48.2695C231.34 49.0508 232.172 49.4414 233.242 49.4414C234.023 49.4414 234.707 49.332 235.293 49.1133C235.887 48.8867 236.398 48.5781 236.828 48.1875L237.73 49.6875C237.277 50.125 236.676 50.4961 235.926 50.8008C235.184 51.0977 234.289 51.2461 233.242 51.2461ZM229.926 43.3945H235.773V43.0898C235.773 42.1836 235.531 41.4258 235.047 40.8164C234.562 40.207 233.844 39.9023 232.891 39.9023C232.117 39.9023 231.457 40.2305 230.91 40.8867C230.363 41.5352 230.027 42.3516 229.902 43.3359L229.926 43.3945ZM239.77 51V49.5234L241.68 49.1953V34.5352L239.77 34.207V32.7188H243.988V49.1953L245.898 49.5234V51H239.77ZM247.258 51V49.5234L249.168 49.1953V34.5352L247.258 34.207V32.7188H251.477V40.0078C251.914 39.3984 252.449 38.9258 253.082 38.5898C253.715 38.2539 254.418 38.0859 255.191 38.0859C256.551 38.0859 257.605 38.4922 258.355 39.3047C259.105 40.1172 259.48 41.3672 259.48 43.0547V49.1953L261.391 49.5234V51H255.262V49.5234L257.172 49.1953V43.0312C257.172 40.9844 256.277 39.9609 254.488 39.9609C253.855 39.9609 253.277 40.1133 252.754 40.418C252.238 40.7148 251.812 41.1211 251.477 41.6367V49.1953L253.387 49.5234V51H247.258ZM267.074 51.2461C265.754 51.2461 264.75 50.9258 264.062 50.2852C263.375 49.6367 263.031 48.7266 263.031 47.5547C263.031 46.3516 263.523 45.3867 264.508 44.6602C265.492 43.9258 266.859 43.5586 268.609 43.5586H270.871V42.3164C270.871 41.5508 270.637 40.957 270.168 40.5352C269.707 40.1133 269.055 39.9023 268.211 39.9023C267.68 39.9023 267.219 39.9688 266.828 40.1016C266.438 40.2266 266.082 40.4023 265.762 40.6289L265.516 42.3984H263.734V39.4922C264.883 38.5547 266.387 38.0859 268.246 38.0859C269.785 38.0859 270.992 38.4531 271.867 39.1875C272.742 39.9219 273.18 40.9727 273.18 42.3398V48.4453C273.18 48.6094 273.18 48.7695 273.18 48.9258C273.188 49.082 273.199 49.2383 273.215 49.3945L274.445 49.5234V51H271.129C270.996 50.3594 270.914 49.7773 270.883 49.2539C270.438 49.8242 269.879 50.3008 269.207 50.6836C268.543 51.0586 267.832 51.2461 267.074 51.2461ZM267.414 49.3125C268.18 49.3125 268.879 49.1289 269.512 48.7617C270.145 48.3945 270.598 47.9531 270.871 47.4375V45.1406H268.527C267.465 45.1406 266.668 45.3945 266.137 45.9023C265.605 46.4102 265.34 46.9766 265.34 47.6016C265.34 48.7422 266.031 49.3125 267.414 49.3125ZM281.371 51.2461C280.52 51.2461 279.723 51.1602 278.98 50.9883C278.238 50.8164 277.449 50.5508 276.613 50.1914L276.59 47.1797H278.336L278.77 48.9961C279.598 49.3398 280.465 49.5117 281.371 49.5117C282.309 49.5117 282.98 49.332 283.387 48.9727C283.793 48.6133 283.996 48.168 283.996 47.6367C283.996 47.1367 283.789 46.7148 283.375 46.3711C282.969 46.0195 282.227 45.7227 281.148 45.4805C279.617 45.1289 278.488 44.6602 277.762 44.0742C277.043 43.4805 276.684 42.6914 276.684 41.707C276.684 41.0195 276.883 40.4062 277.281 39.8672C277.68 39.3203 278.234 38.8867 278.945 38.5664C279.656 38.2461 280.484 38.0859 281.43 38.0859C282.391 38.0859 283.211 38.1953 283.891 38.4141C284.578 38.6328 285.176 38.9258 285.684 39.293L285.801 42.1875H284.066L283.691 40.5C283.418 40.2969 283.094 40.1406 282.719 40.0312C282.344 39.9219 281.914 39.8672 281.43 39.8672C280.711 39.8672 280.125 40.0352 279.672 40.3711C279.227 40.707 279.004 41.1289 279.004 41.6367C279.004 41.9336 279.066 42.1914 279.191 42.4102C279.324 42.6289 279.574 42.8281 279.941 43.0078C280.309 43.1797 280.848 43.3516 281.559 43.5234C283.324 43.9375 284.555 44.4648 285.25 45.1055C285.953 45.7461 286.305 46.5352 286.305 47.4727C286.305 48.543 285.906 49.4414 285.109 50.168C284.32 50.8867 283.074 51.2461 281.371 51.2461Z" fill="#DBC64B"/>
</svg>
